<svg xmlns="http://www.w3.org/2000/svg" viewBox="0 0 295.86 42.52"><defs><style>.cls-1{fill:#fff;}</style></defs><g id="Laag_2" data-name="Laag 2"><g id="Laag_1-2" data-name="Laag 1"><path class="cls-1" d="M30.86,23.25H5.77V41.87H0V.24H5.77V18H30.86V.24h5.71V41.87H30.86Z"/><path class="cls-1" d="M54.47.24H79.81V5.41H60.24V18.14H76.48v5.11H60.24V36.69H79.81v5.18H54.47Z"/><path class="cls-1" d="M105.44,25.21h-4.52V41.87H95.15V.24h12.13c7.79,0,14,4.22,14,12.31,0,5.83-4,10.17-9.7,11.71l15.7,17.61h-7.19ZM100.8,5.35V20.16h6c5,0,8.62-3.09,8.62-7.61s-3.57-7.2-8.33-7.2Z"/><path class="cls-1" d="M163.42,32.23l16-32h8.68V41.87h-5.59V5.71L163.84,42.52H163L144.27,6V41.87h-5.41V.24h8.51Z"/><path class="cls-1" d="M221.17,0h5.29l18.67,41.87H239l-4.64-10.71H212.55l-4.82,10.71h-5.95Zm10.94,26.11-8.5-19.57-8.8,19.57Z"/><path class="cls-1" d="M258.87.24h5.29l26.29,29.91V.24h5.41V42.16h-2L264.34,8.5V41.87h-5.47Z"/></g></g></svg>