<?xml version="1.0" encoding="UTF-8"?><svg id="Laag_2" xmlns="http://www.w3.org/2000/svg" viewBox="0 0 524.99 450.52"><g id="Laag_1-2"><path d="M.78,450.52c-1.25-2.27-.86-4.02,.16-5.84,.69-1.24,1.59-2.48,2.67-3.69,9.37-10.52,18.69-20.91,29.8-33.28,.24-.27,.58-.55,.93-.85,.75-.63,1.59-1.34,2.13-2.39,7.86-15.32,18.95-28.74,29.67-41.71,5.4-6.54,10.99-13.29,16.12-20.24,3.16-4.28,6.42-8.59,9.58-12.77,3.93-5.2,7.99-10.57,11.9-15.92l1.39-1.9c5.5-7.53,11.18-15.31,16.19-23.37,2.8-4.51,4.9-9.82,6.06-15.38,1.59-7.61,4.86-14.77,8.02-21.7,1.79-3.93,3.64-7.99,5.2-12.14,1.59-4.24,3.14-8.57,4.63-12.76,2.12-5.92,4.31-12.05,6.64-17.98,1.57-3.99,3.38-7.98,5.14-11.85,1.74-3.83,3.54-7.79,5.12-11.79,3.69-9.32,7.34-18.83,10.87-28.02,5.84-15.21,11.89-30.93,18.23-46.21,8.94-21.54,20.04-46.82,34.59-71.08,8.25-13.76,17.85-27.82,32.06-37.51,2.06-1.4,3.97-2.14,5.54-2.14,1.08,0,2.01,.34,2.85,1.05,1.81,1.53,3.3,5.41,2.91,7.56-2.08,11.25-4.42,20.32-7.35,28.56-5.62,15.78-11.44,32.11-18.86,47.78-10.59,22.37-22.21,44.73-33.45,66.36l-4.66,8.97c-6.36,12.26-13.66,25.56-22.98,41.86-4.14,7.24-8.66,14.45-13.04,21.42-1.49,2.38-2.99,4.76-4.47,7.14-3.16,5.09-6.35,10.16-9.53,15.23-6.05,9.63-12.31,19.59-18.29,29.51-5.14,8.53-10.15,17.64-15.33,27.87-1.88,3.72-3.25,7.69-4.57,11.54-.51,1.47-1.01,2.95-1.55,4.41-1.2,3.27-2.42,6.54-3.63,9.8-3.26,8.74-6.62,17.78-9.61,26.8-2.28,6.88-3.9,14.05-5.46,20.99l-.52,2.32c-.67,2.96,1.14,5.83,2.8,8l1.76,2.31,1.53-2.47c.82-1.33,1.72-2.67,2.59-3.96,1.96-2.92,3.98-5.93,5.45-9.22,10.03-22.46,19.37-42.59,32.1-61.48,4.31-6.39,8.53-12.98,12.61-19.36,6.28-9.8,12.77-19.93,19.67-29.49,11.61-16.08,24.22-32.94,39.51-46.77,2-1.81,4.6-3.23,7.12-4.59l.86-.47c2.58-1.41,4.8-2.13,6.6-2.13,2.05,0,5,.82,6.9,7.91,2.95,11.02,3.41,23.05,1.42,37.87-.57,4.3-.77,8.67-.96,12.9v.14c-.61,13.5-1.47,25.64-5.81,37.5-1.16,3.16-1.21,6.55-1.25,9.84-.02,1.4-.04,2.73-.14,3.99l-.11,1.35,1.21,.6c2.08,1.04,3.96,1.54,5.75,1.54,4.45,0,7.2-3.16,9.41-5.7,2.3-2.65,4.6-5.38,6.83-8.02,6.38-7.58,12.98-15.42,20.35-22.05,7.58-6.83,14.37-14.49,20.93-21.9,4.91-5.54,9.99-11.28,15.32-16.56,3.87-3.84,8.15-7.42,12.56-11.05,6.82-5.62,14.16-11.6,21.6-17.27,2.42-1.84,5.23-3.35,8.11-4.34,2.89-1,5.26-1.49,7.25-1.49,4.55,0,7.41,2.63,9.86,9.08,3.29,8.66,4.47,15.56,3.81,22.38-.96,9.97-1.62,20.13-2.25,29.95-.4,6.18-.81,12.57-1.3,18.84-.47,6.1,1.4,10.39,5.72,13.1,1.79,1.13,3.64,1.7,5.49,1.7,2.94,0,5.77-1.39,8.65-4.25,9.82-9.74,19.34-19.3,27.35-27.36,6.23-6.27,11.71-11.85,16.74-17.05,2.64-2.73,5.36-5.69,8.83-9.57,3.01-3.38,5.43-5.02,7.4-5.02,2.13,0,4.4,2.09,6.93,6.38,1.85,3.15,3.6,6.85,5.34,11.31,5.2,13.33,14.2,20.37,27.52,21.53,2.91,.25,5.52,.38,8,.38,6.84,0,12.86-.98,18.41-2.99,2.25-.81,4.67-1.38,7.02-1.93,.64-.15,1.27-.3,1.9-.45,.75,1.18,1.68,2.75,1.73,3.37-.32,.29-1.39,.72-3.19,1.27-3.12,.96-6.23,2.07-9.24,3.14-4.91,1.75-9.99,3.56-15.07,4.69-4.92,1.09-9.76,1.64-14.4,1.64-1.94,0-3.83-.1-5.64-.3-13.5-1.47-20.09-11.96-24.75-22.04-1.25-2.7-2.41-5.46-3.76-8.67-.68-1.62-1.41-3.35-2.22-5.24l-1.11-2.58-2.08,1.89c-2.02,1.84-3.95,3.53-5.79,5.14-3.81,3.35-7.41,6.51-10.64,9.92-3.15,3.33-6.16,6.87-9.07,10.29-3.87,4.54-7.88,9.25-12.18,13.43-8.21,7.99-17.17,15.09-24.87,20.99-2.27,1.74-5,2.66-7.89,2.66-3.42,0-6.69-1.31-8.96-3.61-2.14-2.16-3.25-5.02-3.22-8.27,.05-6.18,.64-12.51,1.22-18.63,.3-3.26,.62-6.62,.85-9.95,.38-5.43,.65-10.95,.91-16.29l.13-2.63c.33-6.73,.63-13.41,.88-19.87,.02-.44,.05-.9,.09-1.35,.12-1.61,.26-3.43-.29-5.14-.82-2.58-3.33-10.41-10.67-10.41-2.55,0-5.48,.93-8.96,2.83-11.05,6.05-21.13,13.55-29.96,22.28-17.78,17.59-35.35,36.94-52.21,57.49-5.05,6.15-10.77,13.12-17.19,18.73-4.46,3.89-10.11,7.19-16.34,9.54-.96,.36-1.93,.54-2.89,.54-2.34,0-4.5-1.1-5.92-3.01-1.49-2.01-1.91-4.6-1.15-7.12,5.51-18.3,7.37-37.48,9.02-54.41,1.17-12.05,1.45-24.12,1.73-35.79,.06-2.54-.6-5.02-1.23-7.43-.28-1.06-.57-2.16-.79-3.24l-.4-1.94-1.95,.38c-10.06,1.99-16.53,5.68-21.63,12.36-4.6,6.01-9.5,11.98-14.23,17.76-6.27,7.64-12.75,15.54-18.66,23.68-5.47,7.54-10.33,15.67-15.03,23.53-2.53,4.23-5.15,8.61-7.82,12.83-2.04,3.21-4.23,6.43-6.36,9.54-3.43,5.01-6.97,10.19-10,15.6-6.73,12.01-12.9,24.64-18.56,36.5-4.06,8.5-7.14,16.07-9.4,23.13-2.28,7.11-7.62,10.06-14.42,13.54-3.68-3.7-4.74-7.74-3.55-13.29,.62-2.91,1.19-5.88,1.74-8.75,1.16-6.08,2.36-12.36,4.15-18.3,2.46-8.19,5.51-16.39,8.46-24.31,1.16-3.1,2.31-6.21,3.44-9.32,1.04-2.89,2.17-5.81,3.27-8.63,.51-1.33,1.03-2.65,1.53-3.98l.62-1.62-4.89-2.7s-6.26,7.99-8.87,11.31c-6.05,7.7-12.3,15.66-18.4,23.53-4.33,5.58-8.67,11.29-12.87,16.82-2.13,2.8-4.26,5.6-6.39,8.4-3.22,4.21-6.44,8.42-9.67,12.62-6.96,9.08-14.16,18.47-21.15,27.78-6.96,9.26-15.11,18.39-26.28,29.37ZM260.07,10.8c-.89,.36-1.79,.65-2.67,.92-2.02,.64-3.93,1.24-5.33,2.67-5.25,5.38-10.2,11.19-14.99,16.81l-.27,.32c-14.79,17.37-24.28,38.64-32.64,57.4-10.96,24.58-21.08,50.02-30.86,74.62-2.58,6.5-5.16,12.99-7.76,19.48-6.93,17.28-13.69,34.95-20.24,52.04-1.79,4.67-3.57,9.33-5.37,13.99-.47,1.21-.61,2.44-.8,4.15-.1,.93-.23,2.04-.44,3.42l-.94,6.25,4.37-4.57c.97-1.02,1.77-1.79,2.42-2.43,1.17-1.14,2.02-1.97,2.66-3.02,2.41-3.97,4.82-7.94,7.24-11.91,8.43-13.86,17.15-28.19,25.46-42.45,9-15.44,17.8-31.32,26.32-46.68l2.93-5.28c1.77-3.18,3.62-6.41,5.41-9.53,5.06-8.81,10.3-17.93,14.35-27.42,8.25-19.31,15.99-39.2,23.47-58.43,2.5-6.43,5-12.86,7.53-19.29,1.98-5.05,4.45-11.33,2.87-19.59l-.46-2.4-2.26,.92Z"/></g></svg>