<?xml version="1.0" encoding="UTF-8"?><svg id="Laag_2" xmlns="http://www.w3.org/2000/svg" viewBox="0 0 42.78 10.14"><g id="Laag_1-2"><g><path d="M0,9.97v-.74L6.34,1.16H.21V.17H7.85V.91L1.5,8.97H7.85v.99H0Z"/><path d="M17.75,8.64c-.94,.99-2.14,1.49-3.6,1.49s-2.65-.49-3.58-1.48c-.93-.98-1.4-2.17-1.4-3.56v-.03c0-1.39,.47-2.58,1.41-3.58,.94-.99,2.14-1.49,3.6-1.49s2.65,.49,3.58,1.48c.93,.98,1.4,2.17,1.4,3.56v.03c0,1.39-.47,2.58-1.41,3.58Zm-6.33-.71c.73,.78,1.65,1.18,2.76,1.18s2.03-.39,2.75-1.16c.72-.77,1.08-1.73,1.08-2.86v-.03c0-1.13-.37-2.09-1.1-2.87-.73-.78-1.65-1.18-2.77-1.18s-2.03,.39-2.75,1.16c-.72,.77-1.08,1.73-1.08,2.86v.03c0,1.13,.37,2.09,1.1,2.87Z"/><path d="M29.65,8.64c-.94,.99-2.14,1.49-3.6,1.49s-2.65-.49-3.58-1.48c-.93-.98-1.4-2.17-1.4-3.56v-.03c0-1.39,.47-2.58,1.41-3.58,.94-.99,2.14-1.49,3.6-1.49s2.65,.49,3.58,1.48c.93,.98,1.4,2.17,1.4,3.56v.03c0,1.39-.47,2.58-1.41,3.58Zm-6.33-.71c.73,.78,1.65,1.18,2.76,1.18s2.03-.39,2.75-1.16c.72-.77,1.08-1.73,1.08-2.86v-.03c0-1.13-.37-2.09-1.1-2.87-.73-.78-1.65-1.18-2.77-1.18s-2.03,.39-2.75,1.16c-.72,.77-1.08,1.73-1.08,2.86v.03c0,1.13,.37,2.09,1.1,2.87Z"/><path d="M33.4,9.97V.17h1.12l3.57,5.35L41.66,.17h1.12V9.97h-1.11V2.03l-3.57,5.25h-.06l-3.57-5.24v7.92h-1.08Z"/></g></g></svg>